<svg width="21" height="25" viewBox="0 0 21 25" fill="none" xmlns="http://www.w3.org/2000/svg">
<path d="M15.061 5.57842C15.061 8.35184 12.8127 10.6001 10.0393 10.6001C7.2659 10.6001 5.0176 8.35184 5.0176 5.57842C5.0176 2.805 7.2659 0.556702 10.0393 0.556702C12.8127 0.556702 15.061 2.805 15.061 5.57842Z" stroke="black"/>
<path d="M4.73449 10.6078C6.06607 12.0118 7.95052 12.8886 10.0393 12.8886C12.1282 12.8886 14.0124 12.0118 15.344 10.6078C16.7486 11.831 17.8935 13.5326 18.6281 15.543H17.0499C14.9157 15.543 13.1857 17.2732 13.1857 19.4073V21.5375C12.1807 21.6311 11.094 21.6896 9.9473 21.6896C7.08992 21.6896 4.65174 21.3267 2.92954 20.9641C2.0688 20.7829 1.38796 20.602 0.924269 20.4671C0.781145 20.4255 0.658747 20.3883 0.558172 20.3568C0.650311 16.2754 2.30203 12.7259 4.73449 10.6078Z" stroke="black"/>
<path d="M18.5284 21.1521H18.0284V21.6521V23.1714C18.0284 23.3842 17.8559 23.5567 17.6431 23.5567C17.4303 23.5567 17.2578 23.3842 17.2578 23.1714V21.6521V21.1521H16.7578H15.2284C15.0156 21.1521 14.8431 20.9796 14.8431 20.7668C14.8431 20.554 15.0156 20.3815 15.2284 20.3815H16.7578H17.2578V19.8815V18.3021C17.2578 18.0894 17.4303 17.9168 17.6431 17.9168C17.8559 17.9168 18.0284 18.0894 18.0284 18.3021V19.8815V20.3815H18.5284H20.0976C20.3104 20.3815 20.4829 20.554 20.4829 20.7668C20.4829 20.9796 20.3104 21.1521 20.0976 21.1521H18.5284Z" stroke="black"/>
</svg>
