<svg width="35" height="35" viewBox="0 0 35 35" fill="none" xmlns="http://www.w3.org/2000/svg">
<path d="M25.8283 9.73388C25.8283 13.7161 22.5056 16.9678 18.3776 16.9678C14.2496 16.9678 10.9269 13.7161 10.9269 9.73388C10.9269 5.75166 14.2496 2.5 18.3776 2.5C22.5056 2.5 25.8283 5.75166 25.8283 9.73388Z" stroke="black"/>
<path d="M5.18798 30.7789C4.90126 30.6977 4.67154 30.6283 4.50298 30.5756C4.60052 24.6638 7.08078 19.5098 10.7571 16.492C12.643 18.5085 15.3605 19.7725 18.3776 19.7725C21.3904 19.7725 24.104 18.5122 25.9896 16.501C27.1244 17.5291 28.43 19.4315 29.4908 21.8464C30.6142 24.4039 31.4366 27.4773 31.4965 30.5764C31.3548 30.6206 31.1689 30.6767 30.94 30.7416C30.3425 30.911 29.4522 31.1409 28.2902 31.3795C25.9676 31.8564 22.5602 32.3679 18.2375 32.5001C14.1071 32.4995 10.5828 31.9891 8.09231 31.4791C6.84665 31.224 5.86064 30.9692 5.18798 30.7789Z" stroke="black"/>
</svg>
