<svg width="35" height="35" viewBox="0 0 35 35" fill="none" xmlns="http://www.w3.org/2000/svg">
<path d="M2.91666 17.4777C2.91666 17.9018 3.29479 18.2456 3.76131 18.2456H19.8488L16.7109 21.0938C16.3819 21.3929 16.3819 21.8795 16.7109 22.1786C16.8729 22.3259 17.089 22.4018 17.3051 22.4018C17.5212 22.4018 17.7372 22.3259 17.8993 22.1786L22.4712 18.0224C22.8002 17.7233 22.8002 17.2366 22.4712 16.9375L17.8993 12.7813C17.5703 12.4822 17.035 12.4822 16.706 12.7813C16.377 13.0804 16.377 13.567 16.706 13.8661L19.839 16.7143H3.76131C3.29479 16.7143 2.91666 17.0536 2.91666 17.4777Z" fill="black"/>
<path d="M26.543 30.625C29.9097 30.625 32.6411 28.1365 32.6411 25.0758V9.76162C32.6411 6.70095 29.9038 4.21246 26.543 4.21246H9.69738C6.33064 4.21246 3.59924 6.70095 3.59924 9.76162V12.9087C3.59924 13.4215 4.05646 13.8317 4.61461 13.8317C5.1787 13.8317 5.63591 13.4161 5.63591 12.9087V9.76162C5.63591 7.72657 7.45882 6.06398 9.69738 6.06398H26.543C28.7815 6.06398 30.6044 7.72117 30.6044 9.76162V25.0758C30.6044 27.1108 28.7815 28.7734 26.543 28.7734H9.69738C7.45882 28.7734 5.63591 27.1162 5.63591 25.0758V21.9665C5.63591 21.4537 5.1787 21.0381 4.61461 21.0381C4.05052 21.0381 3.59924 21.4537 3.59924 21.9665V25.0758C3.59924 28.1365 6.33658 30.625 9.69738 30.625H26.543Z" fill="black"/>
</svg>
