<svg width="35" height="35" viewBox="0 0 35 35" fill="none" xmlns="http://www.w3.org/2000/svg">
<path d="M27.8013 16.9208C27.8013 17.3449 27.4231 17.6886 26.9566 17.6886H10.8691L14.007 20.5368C14.3361 20.836 14.3361 21.3226 14.007 21.6217C13.845 21.769 13.6289 21.8449 13.4128 21.8449C13.1968 21.8449 12.9807 21.769 12.8186 21.6217L8.24676 17.4654C7.91774 17.1663 7.91774 16.6797 8.24676 16.3806L12.8186 12.2243C13.1477 11.9252 13.6829 11.9252 14.012 12.2243C14.341 12.5234 14.341 13.01 14.012 13.3092L10.8789 16.1574H26.9566C27.4231 16.1574 27.8013 16.4967 27.8013 16.9208Z" fill="black"/>
<path d="M26.543 30.625C29.9097 30.625 32.6411 28.1365 32.6411 25.0758V9.76162C32.6411 6.70095 29.9038 4.21246 26.543 4.21246H9.69739C6.33065 4.21246 3.59925 6.70095 3.59925 9.76162V12.9087C3.59925 13.4215 4.05646 13.8317 4.61462 13.8317C5.17871 13.8317 5.63592 13.4161 5.63592 12.9087V9.76162C5.63592 7.72657 7.45883 6.06398 9.69739 6.06398H26.543C28.7815 6.06398 30.6044 7.72117 30.6044 9.76162V25.0758C30.6044 27.1108 28.7815 28.7734 26.543 28.7734H9.69739C7.45883 28.7734 5.63592 27.1162 5.63592 25.0758V21.9665C5.63592 21.4537 5.17871 21.0381 4.61462 21.0381C4.05052 21.0381 3.59925 21.4537 3.59925 21.9665V25.0758C3.59925 28.1365 6.33658 30.625 9.69739 30.625H26.543Z" fill="black"/>
</svg>
